<?xml version="1.0" encoding="UTF-8" standalone="no"?>
<svg
    xmlns="http://www.w3.org/2000/svg"
    version="1.1"
    viewBox="0 0 2048 2048"
    preserveAspectRatio="xMidYMid slice"
>
    <style type="text/css">
        #icon {
          transform-origin: center center;
          animation: load 2s ease-in-out infinite;
        }
        @keyframes load {
          0% {
            transform: translateY(0) rotate(0deg);
          }
          20% {
            transform: translateY(-5%) rotate(0deg);
          }
          40% {
            transform: translateY(0) rotate(0deg);
          }
          100% {
            transform: translateY(0) rotate(360deg);
          }
        }
    </style>
    <rect
          y="0"
          x="0"
          height="100%"
          width="100%"
          fill="#000000"
          fill-opacity="0.1"
          stroke="none"
    />
    <path
          id="icon"
          fill="currentColor"
          fill-opacity="0.2"
          d="M 1231.9999,832.00001 H 816 c -26.51,0 -48,21.49 -48,48 V 1168 c 0,26.51 21.49,48 48,48 h 415.9999 c 26.51,0 48,-21.49 48,-48 V 880.00001 c 0,-26.51 -21.49,-48 -48,-48 z m -6,335.99999 H 822 a 6,6 0 0 1 -6,-6 V 886.00001 a 6,6 0 0 1 6,-6 h 403.9999 a 6,6 0 0 1 6,6 V 1162 a 6,6 0 0 1 -6,6 z M 896,920.00001 c -22.091,0 -40,17.909 -40,40 C 856,982.091 873.909,1000 896,1000 c 22.091,0 40,-17.909 40,-39.99999 0,-22.091 -17.909,-40 -40,-40 z M 864,1120 h 319.9999 v -80 l -87.515,-87.51499 c -4.686,-4.686 -12.284,-4.686 -16.971,0 L 960,1072 920.485,1032.485 c -4.686,-4.686 -12.284,-4.686 -16.971,0 L 864,1072 Z"
    />
</svg>
